ffmpeg started on 2015-06-27 at 18:02:40
Report written to "ffv1_test_pixfmt-yuv444p_coder-0_level-1.txt"
Command line:
ffmpeg -y -f lavfi -i mandelbrot -c:v ffv1 -pix_fmt yuv444p -level 1 -coder 0 -t 1 ffv1_test_pixfmt-yuv444p_coder-0_level-1.mkv
ffmpeg version 2.6.3 Copyright (c) 2000-2015 the FFmpeg developers
  built with Apple LLVM version 6.1.0 (clang-602.0.49) (based on LLVM 3.6.0svn)
  configuration: --prefix=/usr/local/Cellar/ffmpeg/2.6.3 --enable-shared --enable-pthreads --enable-gpl --enable-version3 --enable-hardcoded-tables --enable-avresample --cc=clang --host-cflags= --host-ldflags= --enable-libx264 --enable-libmp3lame --enable-libvo-aacenc --enable-libxvid --enable-libfaac --enable-ffplay --enable-nonfree --enable-vda
  libavutil      54. 20.100 / 54. 20.100
  libavcodec     56. 26.100 / 56. 26.100
  libavformat    56. 25.101 / 56. 25.101
  libavdevice    56.  4.100 / 56.  4.100
  libavfilter     5. 11.102 /  5. 11.102
  libavresample   2.  1.  0 /  2.  1.  0
  libswscale      3.  1.101 /  3.  1.101
  libswresample   1.  1.100 /  1.  1.100
  libpostproc    53.  3.100 / 53.  3.100
Splitting the commandline.
Reading option '-y' ... matched as option 'y' (overwrite output files) with argument '1'.
Reading option '-f' ... matched as option 'f' (force format) with argument 'lavfi'.
Reading option '-i' ... matched as input file with argument 'mandelbrot'.
Reading option '-c:v' ... matched as option 'c' (codec name) with argument 'ffv1'.
Reading option '-pix_fmt' ... matched as option 'pix_fmt' (set pixel format) with argument 'yuv444p'.
Reading option '-level' ... matched as AVOption 'level' with argument '1'.
Reading option '-coder' ... matched as AVOption 'coder' with argument '0'.
Reading option '-t' ... matched as option 't' (record or transcode "duration" seconds of audio/video) with argument '1'.
Reading option 'ffv1_test_pixfmt-yuv444p_coder-0_level-1.mkv' ... matched as output file.
Finished splitting the commandline.
Parsing a group of options: global .
Applying option y (overwrite output files) with argument 1.
Successfully parsed a group of options.
Parsing a group of options: input file mandelbrot.
Applying option f (force format) with argument lavfi.
Successfully parsed a group of options.
Opening an input file: mandelbrot.
detected 4 logical cores
[AVFilterGraph @ 0x7ff088d10880] query_formats: 2 queried, 1 merged, 0 already done, 0 delayed
[lavfi @ 0x7ff089800a00] All info found
Input #0, lavfi, from 'mandelbrot':
  Duration: N/A, start: 0.000000, bitrate: N/A
    Stream #0:0, 1, 1/25: Video: rawvideo (RGBA / 0x41424752), rgba, 640x480 [SAR 1:1 DAR 4:3], 25 tbr, 25 tbn, 25 tbc
Successfully opened the file.
Parsing a group of options: output file ffv1_test_pixfmt-yuv444p_coder-0_level-1.mkv.
Applying option c:v (codec name) with argument ffv1.
Applying option pix_fmt (set pixel format) with argument yuv444p.
Applying option t (record or transcode "duration" seconds of audio/video) with argument 1.
Successfully parsed a group of options.
Opening an output file: ffv1_test_pixfmt-yuv444p_coder-0_level-1.mkv.
Successfully opened the file.
[graph 0 input from stream 0:0 @ 0x7ff088c006a0] Setting 'video_size' to value '640x480'
[graph 0 input from stream 0:0 @ 0x7ff088c006a0] Setting 'pix_fmt' to value '28'
[graph 0 input from stream 0:0 @ 0x7ff088c006a0] Setting 'time_base' to value '1/25'
[graph 0 input from stream 0:0 @ 0x7ff088c006a0] Setting 'pixel_aspect' to value '1/1'
[graph 0 input from stream 0:0 @ 0x7ff088c006a0] Setting 'sws_param' to value 'flags=2'
[graph 0 input from stream 0:0 @ 0x7ff088c006a0] Setting 'frame_rate' to value '25/1'
[graph 0 input from stream 0:0 @ 0x7ff088c006a0] w:640 h:480 pixfmt:rgba tb:1/25 fr:25/1 sar:1/1 sws_param:flags=2
[format @ 0x7ff088c00c00] compat: called with args=[yuv444p]
[format @ 0x7ff088c00c00] Setting 'pix_fmts' to value 'yuv444p'
[auto-inserted scaler 0 @ 0x7ff088c01780] Setting 'flags' to value '0x4'
[auto-inserted scaler 0 @ 0x7ff088c01780] w:iw h:ih flags:'0x4' interl:0
[format @ 0x7ff088c00c00] auto-inserting filter 'auto-inserted scaler 0' between the filter 'Parsed_null_0' and the filter 'format'
[AVFilterGraph @ 0x7ff088d0f1c0] query_formats: 5 queried, 3 merged, 1 already done, 0 delayed
[auto-inserted scaler 0 @ 0x7ff088c01780] w:640 h:480 fmt:rgba sar:1/1 -> w:640 h:480 fmt:yuv444p sar:1/1 flags:0x4
Output #0, matroska, to 'ffv1_test_pixfmt-yuv444p_coder-0_level-1.mkv':
  Metadata:
    encoder         : Lavf56.25.101
    Stream #0:0, 0, 1/1000: Video: ffv1 (FFV1 / 0x31564646), yuv444p, 640x480 [SAR 1:1 DAR 4:3], q=2-31, 200 kb/s, 25 fps, 1k tbn, 25 tbc
    Metadata:
      encoder         : Lavc56.26.100 ffv1
Stream mapping:
  Stream #0:0 -> #0:0 (rawvideo (native) -> ffv1 (native))
Press [q] to stop, [?] for help
Cliping frame in rate conversion by 0.000008
[matroska @ 0x7ff08a006c00] Writing block at offset 647, size 172990, pts 0, dts 0, duration 40, flags 128
[matroska @ 0x7ff08a006c00] Writing block at offset 173645, size 172505, pts 40, dts 40, duration 40, flags 0
[matroska @ 0x7ff08a006c00] Writing block at offset 346158, size 173031, pts 80, dts 80, duration 40, flags 0
[matroska @ 0x7ff08a006c00] Writing block at offset 519197, size 174589, pts 120, dts 120, duration 40, flags 0
[matroska @ 0x7ff08a006c00] Writing block at offset 693794, size 176141, pts 160, dts 160, duration 40, flags 0
[matroska @ 0x7ff08a006c00] Writing block at offset 869943, size 177724, pts 200, dts 200, duration 40, flags 0
[matroska @ 0x7ff08a006c00] Writing block at offset 1047675, size 179110, pts 240, dts 240, duration 40, flags 0
[matroska @ 0x7ff08a006c00] Writing block at offset 1226793, size 181093, pts 280, dts 280, duration 40, flags 0
[matroska @ 0x7ff08a006c00] Writing block at offset 1407894, size 183278, pts 320, dts 320, duration 40, flags 0
[matroska @ 0x7ff08a006c00] Writing block at offset 1591180, size 185589, pts 360, dts 360, duration 40, flags 0
[matroska @ 0x7ff08a006c00] Writing block at offset 1776777, size 187749, pts 400, dts 400, duration 40, flags 0
[matroska @ 0x7ff08a006c00] Writing block at offset 1964534, size 189997, pts 440, dts 440, duration 40, flags 0
[matroska @ 0x7ff08a006c00] Starting new cluster at offset 2154539 bytes, pts 480dts 480
[matroska @ 0x7ff08a006c00] Writing block at offset 2154555, size 193033, pts 480, dts 480, duration 40, flags 128
[matroska @ 0x7ff08a006c00] Writing block at offset 2347596, size 194445, pts 520, dts 520, duration 40, flags 0
[matroska @ 0x7ff08a006c00] Writing block at offset 2542049, size 196583, pts 560, dts 560, duration 40, flags 0
frame=   15 fps=0.0 q=0.0 size=    2674kB time=00:00:00.60 bitrate=36515.2kbits/s    [matroska @ 0x7ff08a006c00] Writing block at offset 2738640, size 198566, pts 600, dts 600, duration 40, flags 0
[matroska @ 0x7ff08a006c00] Writing block at offset 2937214, size 200041, pts 640, dts 640, duration 40, flags 0
[matroska @ 0x7ff08a006c00] Writing block at offset 3137263, size 201845, pts 680, dts 680, duration 40, flags 0
[matroska @ 0x7ff08a006c00] Writing block at offset 3339116, size 203224, pts 720, dts 720, duration 40, flags 0
[matroska @ 0x7ff08a006c00] Writing block at offset 3542348, size 205006, pts 760, dts 760, duration 40, flags 0
[matroska @ 0x7ff08a006c00] Writing block at offset 3747362, size 206060, pts 800, dts 800, duration 40, flags 0
[matroska @ 0x7ff08a006c00] Writing block at offset 3953430, size 207884, pts 840, dts 840, duration 40, flags 0
[matroska @ 0x7ff08a006c00] Writing block at offset 4161322, size 208657, pts 880, dts 880, duration 40, flags 0
[matroska @ 0x7ff08a006c00] Writing block at offset 4369987, size 210129, pts 920, dts 920, duration 40, flags 0
[matroska @ 0x7ff08a006c00] Starting new cluster at offset 4580124 bytes, pts 960dts 960
[matroska @ 0x7ff08a006c00] Writing block at offset 4580140, size 213468, pts 960, dts 960, duration 40, flags 128
[output stream 0:0 @ 0x7ff088c00a60] EOF on sink link output stream 0:0:default.
No more output streams to write to, finishing.
[matroska @ 0x7ff08a006c00] end duration = 1000
frame=   25 fps=0.0 q=0.0 Lsize=    4681kB time=00:00:01.00 bitrate=38349.5kbits/s    
video:4680kB audio:0kB subtitle:0kB other streams:0kB global headers:0kB muxing overhead: 0.019738%
Input file #0 (mandelbrot):
  Input stream #0:0 (video): 26 packets read (31948800 bytes); 26 frames decoded; 
  Total: 26 packets (31948800 bytes) demuxed
Output file #0 (ffv1_test_pixfmt-yuv444p_coder-0_level-1.mkv):
  Output stream #0:0 (video): 25 frames encoded; 25 packets muxed (4792737 bytes); 
  Total: 25 packets (4792737 bytes) muxed
26 frames successfully decoded, 0 decoding errors
[AVIOContext @ 0x7ff088d11b80] Statistics: 36 seeks, 186 writeouts
